<svg xmlns="http://www.w3.org/2000/svg" version="1.1" xmlns:xlink="http://www.w3.org/1999/xlink"
    xmlns:svgjs="http://svgjs.dev/svgjs" width="1500" height="2359" viewBox="0 0 1500 2359">
    <g transform="matrix(1,0,0,1,-1.4933688514821597,0.9550607287449111)">
        <svg viewBox="0 0 157 247" data-background-color="#ffffff"
            preserveAspectRatio="xMidYMid meet" height="2359" width="1500"
            xmlns="http://www.w3.org/2000/svg" xmlns:xlink="http://www.w3.org/1999/xlink">
            <g id="tight-bounds"
                transform="matrix(1,0,0,1,0.15630593978846719,-0.09999999999999432)">
                <svg viewBox="0 0 156.6873881204231 247.2" height="247.2" width="156.6873881204231">
                    <g>
                        <svg viewBox="0 0 156.68738812042312 247.20000000000002" height="247.2"
                            width="156.6873881204231">
                            <g>
                                <svg viewBox="0 0 156.68738812042312 247.20000000000002"
                                    height="247.20000000000002" width="156.68738812042312">
                                    <g id="textblocktransform">
                                        <svg viewBox="0 0 156.68738812042312 247.20000000000002"
                                            height="247.20000000000002" width="156.68738812042312"
                                            id="textblock">
                                            <g>
                                                <svg
                                                    viewBox="0 0 156.68738812042312 247.20000000000002"
                                                    height="247.20000000000002"
                                                    width="156.68738812042312">
                                                    <g transform="matrix(1,0,0,1,0,0)">
                                                        <svg width="156.68738812042312"
                                                            viewBox="3.2 -29.74 19.02 30.009999999999998"
                                                            height="247.20000000000002"
                                                            data-palette-color="#fe4f32">
                                                            <g class="wordmark-text-0"
                                                                data-fill-palette-color="primary"
                                                                id="text-0">
                                                                <path
                                                                    d="M4.19-4.58Q3.61-6.03 3.41-7.46 3.2-8.89 3.2-11.38 3.2-13.87 3.74-17.53L3.74-17.53Q5.52-29.74 14.82-29.74L14.82-29.74Q18.41-29.74 20.31-27.27 22.22-24.8 22.22-20.87 22.22-16.94 21.73-13.23L21.73-13.23Q21.66-12.57 20.97-12.55L20.97-12.55 8.91-12.13Q8.89-11.77 8.89-11.16L8.89-11.16Q8.89-8.4 9.85-6.79 10.82-5.18 12.77-5.18 14.72-5.18 16.39-5.75 18.07-6.32 18.36-6.32 18.65-6.32 18.87-6.13 19.09-5.93 19.09-5.59L19.09-5.59 18.6-1.29Q18.58-0.93 18.47-0.82 18.36-0.71 18.04-0.59L18.04-0.59Q15.09 0.27 12.35 0.27 9.62 0.27 8.11-0.39 6.59-1.05 5.68-2.09 4.76-3.13 4.19-4.58ZM9.5-18.26L9.5-18.26 9.28-16.7 15.65-17.02Q16.06-17.04 16.19-17.16L16.19-17.16Q16.55-17.53 16.55-19.18 16.55-20.83 16.44-21.5 16.33-22.17 16.06-22.88L16.06-22.88Q15.5-24.44 14.15-24.44 12.79-24.44 12.01-23.97L12.01-23.97Q10.28-22.9 9.5-18.26Z"
                                                                    fill="#fe4f32"
                                                                    data-fill-palette-color="primary"></path>
                                                            </g>
                                                        </svg>
                                                    </g>
                                                </svg>
                                            </g>
                                        </svg>
                                    </g>
                                </svg>
                            </g>
                        </svg>
                    </g>
                    <defs></defs>
                </svg>
                <rect width="156.6873881204231" height="247.2" fill="none" stroke="none"
                    visibility="hidden"></rect>
            </g>
        </svg>
    </g>
</svg>